<svg xmlns="http://www.w3.org/2000/svg" viewBox="0 0 295 42" fill="none">
  <defs>
    <linearGradient id="md" x1="0" y1="0" x2="32" y2="32" gradientUnits="userSpaceOnUse">
      <stop offset="0%" stop-color="#6B8AFF"/>
      <stop offset="100%" stop-color="#FF6B6B"/>
    </linearGradient>
    <linearGradient id="wd" x1="38" y1="0" x2="175" y2="0" gradientUnits="userSpaceOnUse">
      <stop offset="0%" stop-color="#6B8AFF"/>
      <stop offset="42%" stop-color="#6B8AFF"/>
      <stop offset="58%" stop-color="#FF6B6B"/>
      <stop offset="100%" stop-color="#FF6B6B"/>
    </linearGradient>
  </defs>
  <g transform="translate(2,2) scale(0.8)">
    <path d="M14 3C5 3 0 12 4 21c3 5 9 7 13 4" stroke="url(#md)" stroke-width="4.5" fill="none" stroke-linecap="round"/>
    <path d="M26 3c9 0 14 9 10 18-3 5-9 7-13 4" stroke="url(#md)" stroke-width="4.5" fill="none" stroke-linecap="round"/>
    <circle cx="20" cy="32" r="3.5" fill="url(#md)"/>
    <line x1="17" y1="25" x2="20" y2="32" stroke="url(#md)" stroke-width="2.5" stroke-linecap="round"/>
    <line x1="23" y1="25" x2="20" y2="32" stroke="url(#md)" stroke-width="2.5" stroke-linecap="round"/>
  </g>
  <text x="38" y="29" font-family="'Inter','SF Pro Display','Segoe UI',system-ui,sans-serif" font-size="28" font-weight="700" fill="url(#wd)" letter-spacing="-1.5">PicoClaw</text>
  <line x1="180" y1="6" x2="180" y2="36" stroke="#4b5563" stroke-width="0.8"/>
  <text x="188" y="18" font-family="'Inter','SF Pro Display','Segoe UI',system-ui,sans-serif" font-size="14" font-weight="400" fill="#6b7280" letter-spacing="-0.2">dotfiles</text>
  <text x="188" y="34" font-family="'Inter','SF Pro Display','Segoe UI',system-ui,sans-serif" font-size="9" font-weight="600" fill="#4ade80" letter-spacing="0.8">FOR ANDROID</text>
</svg>
